# xmcd
#
# Track frame offsets: 
#        150
#        10185
#        21535
#        36900
#        44790
#        55282
#        66855
#        78265
#        89602
#        103857
#        114762
#        125850
#        138490
#        154700
#        166280
#        176495
#        186900
#        200257
#
# Disc length: 2787 seconds
#
# Revision: 7
# Processed by: cddbd v1.5.2PL0 Copyright (c) Steve Scherf et al.
# Submitted via: ExactAudioCopyFreeDBPlugin 1.0
#
DISCID=000ae112
DTITLE=Various / Let's Have A Party CD1
DYEAR=1996
DGENRE=Rock & Roll
TTITLE0=Wanda Jackson / Let's Have A Party
TTITLE1=Christie / Yellow River
TTITLE2=Rubettes / Sugar Baby Love
TTITLE3=Swinging Blue Jeans / Hippy Hippy Shake
TTITLE4=Crystals / Da Doo Ron Ron
TTITLE5=Herman's Hermits / I'm Into Something Good
TTITLE6=Equals / Baby Come Back
TTITLE7=Helen Shapiro / Walkin' Back to Happiness
TTITLE8=Tremeloes / Silence is Golden
TTITLE9=Gerry & the Pacemakers / You'll Never Walk Alone
TTITLE10=Del Shannon / Runaway
TTITLE11=Johnnie Ray / Just Walkin' in the Rain
TTITLE12=Gene Pitney / Something's Gotten Hold of My Heart
TTITLE13=Pat Boone / Speedy Gonzales
TTITLE14=Coasters / Charlie Brown
TTITLE15=Rivingtons / Papa-Oom-Mow-Mow
TTITLE16=Marmalade / Ob-La-Di Ob-La-Da
TTITLE17=B. Bumble & the Stingers / Nut Rocker
EXTD=Delta Music Group\nMusic Digital #11 980\nStereo\n
EXTT0=Jackson, Wanda
EXTT1=Christie
EXTT2=Rubettes
EXTT3=Swinging Blue Jeans
EXTT4=Crystals, The
EXTT5=Herman's Hermits
EXTT6=Equals, The
EXTT7=Shapiro,Helen
EXTT8=Tremeloes, The
EXTT9=Gerry & The Pacemakers
EXTT10=Shannon, Del
EXTT11=Ray, Johnnie
EXTT12=Pitney, Gene
EXTT13=Boone, Pat
EXTT14=Coasters, The
EXTT15=Rivingtons
EXTT16=Marmalade
EXTT17=B. Bumble & The Stingers
PLAYORDER=
